#!OML:ASF C:\ViconDB\ViconDB\414\Spring2016\042216\male.ASF
:FULLY-SPECIFIED
:DEGREES
847
root 36.6498 17.3395 4.20764 -533.675 74.0238 -173.565
lowerback -5.58106 -0.552581 5.08173
upperback 1.92834 -1.09375 -0.581229
thorax 5.03857 -0.367898 -3.56779
lowerneck 1.10701 16.6422 -0.890596
upperneck 0.480375 22.36 -6.3597
head 0.645212 11.2059 -1.65559
rclavicle -1.41634e-015 -2.88238e-015
rhumerus -30.2538 6.05643 -98.0059
rradius 30.0625
rwrist 21.4892
rhand 9.55832 -22.2798
rfingers 7.12502
rthumb 34.7073 -48.9037
lclavicle -1.41634e-015 -2.88238e-015
lhumerus -30.7739 14.749 87.8469
lradius 31.7031
lwrist -11.1148
lhand -11.2679 16.4969
lfingers 7.12502
lthumb 14.7624 45.9512
rfemur -2.00738 13.1915 28.3802
rtibia 23.074
rfoot -21.8555 -16.3982
rtoes -10.3229
lfemur -17.2405 -3.13394 -20.2274
ltibia 36.2482
lfoot -28.3227 18.8904
ltoes -5.91037
848
root 36.6785 17.3374 4.18822 -534.229 73.913 -174.019
lowerback -5.77392 -0.58215 4.99456
upperback 2.05845 -1.13615 -0.665203
thorax 5.28071 -0.380634 -3.61624
lowerneck 0.937047 16.6757 -0.914415
upperneck 0.415731 22.4048 -6.38451
head 0.653521 11.2263 -1.64623
rclavicle -6.39838e-016 5.66536e-015
rhumerus -30.248 5.87407 -97.757
rradius 29.603
rwrist 22.0263
rhand 9.78641 -22.326
rfingers 7.12502
rthumb 34.9237 -48.8998
lclavicle -6.39838e-016 5.66536e-015
lhumerus -30.5284 14.4117 88.0393
lradius 31.9535
lwrist -10.6027
lhand -11.5554 16.6116
lfingers 7.12502
lthumb 14.4854 46.086
rfemur -1.84158 12.2525 28.1473
rtibia 23.1552
rfoot -21.8566 -15.6896
rtoes -10.3607
lfemur -16.8851 -2.96818 -20.3773
ltibia 36.0809
lfoot -28.5841 18.5373
ltoes -5.94502
849
root 36.7103 17.3354 4.17035 -533.845 73.8975 -173.607
lowerback -6.13502 -0.509338 5.15933
upperback 2.19964 -1.07521 -0.670153
thorax 5.63977 -0.330965 -3.71747
lowerneck 0.797457 16.6434 -1.05196
upperneck 0.228245 22.3533 -6.44809
head 0.607452 11.203 -1.6461
rclavicle -5.42185e-014 -1.09332e-015
rhumerus -30.1051 5.36566 -97.3397
rradius 29.0717
rwrist 22.3667
rhand 9.93595 -22.3809
rfingers 7.12502
rthumb 35.0656 -48.9217
lclavicle -5.42185e-014 -1.09332e-015
lhumerus -30.1359 14.4074 88.1921
lradius 32.051
lwrist -10.8107
lhand -11.3793 16.6052
lfingers 7.12502
lthumb 14.6551 46.0673
rfemur -1.76636 11.5134 28.1647
rtibia 23.1907
rfoot -21.7459 -15.0949
rtoes -10.5492
lfemur -16.6682 -2.75331 -20.2705
ltibia 35.9537
lfoot -28.9697 18.0831
ltoes -5.69806
850
root 36.7321 17.3317 4.16032 -534.389 73.6532 -174.042
lowerback -6.16012 -0.578428 4.89927
upperback 2.30636 -1.14882 -0.672378
thorax 5.7626 -0.370834 -3.58282
lowerneck 0.684624 16.6402 -1.07733
upperneck 0.0683412 22.3484 -6.61844
head 0.592929 11.2033 -1.68851
rclavicle 1.24178e-014 8.15017e-015
rhumerus -29.9838 4.87824 -96.9035
rradius 28.4706
rwrist 23.0299
rhand 10.0637 -22.458
rfingers 7.12502
rthumb 35.1867 -48.9703
lclavicle 1.24178e-014 8.15017e-015
lhumerus -29.8878 13.9529 88.4967
lradius 32.3062
lwrist -10.2437
lhand -11.4715 16.6343
lfingers 7.12502
lthumb 14.5663 46.1028
rfemur -1.64815 10.6923 28.0011
rtibia 23.2894
rfoot -21.6653 -14.6541
rtoes -10.718
lfemur -16.401 -2.57687 -20.394
ltibia 35.7842
lfoot -29.2576 17.5065
ltoes -5.48341
851
root 36.7566 17.3316 4.14959 -534.506 73.4657 -174.115
lowerback -6.34295 -0.580047 4.83198
upperback 2.41488 -1.15466 -0.715049
thorax 5.98158 -0.366799 -3.59576
lowerneck 0.577419 16.6141 -1.02523
upperneck -0.0929084 22.3095 -6.74473
head 0.579031 11.1861 -1.72916
rclavicle -1.98785e-015 1.19271e-015
rhumerus -29.8087 4.02849 -96.4032
rradius 27.7768
rwrist 23.8727
rhand 10.1489 -22.4023
rfingers 7.12502
rthumb 35.2676 -48.8955
lclavicle -1.98785e-015 1.19271e-015
lhumerus -29.5836 13.3889 88.7639
lradius 32.4729
lwrist -9.70662
lhand -11.9039 16.9567
lfingers 7.12502
lthumb 14.1496 46.4548
rfemur -1.60429 10.1566 27.9499
rtibia 23.4019
rfoot -21.5953 -14.3779
rtoes -10.9518
lfemur -16.2141 -2.4197 -20.4046
ltibia 35.6282
lfoot -29.4597 16.9771
ltoes -5.18939
852
root 36.7799 17.3352 4.13714 -534.793 73.2348 -174.321
lowerback -6.481 -0.626586 4.67451
upperback 2.53876 -1.21169 -0.721594
thorax 6.18844 -0.392405 -3.525
lowerneck 0.432949 16.567 -1.07792
upperneck -0.238989 22.2446 -6.85617
head 0.56165 11.1554 -1.74965
rclavicle 2.32081e-014 -9.54166e-015
rhumerus -29.6369 3.35122 -95.8551
rradius 27.1294
rwrist 24.8186
rhand 10.3424 -22.4644
rfingers 7.12502
rthumb 35.451 -48.9139
lclavicle 2.32081e-014 -9.54166e-015
lhumerus -29.2905 13.2951 88.947
lradius 32.576
lwrist -9.71571
lhand -11.998 17.0636
lfingers 7.12502
lthumb 14.059 46.5681
rfemur -1.54689 9.57936 27.8221
rtibia 23.5542
rfoot -21.619 -13.9565
rtoes -10.8966
lfemur -15.9778 -2.37155 -20.4732
ltibia 35.4753
lfoot -29.5478 16.5724
ltoes -4.96425
853
root 36.8066 17.333 4.12461 -535.684 72.9012 -175.052
lowerback -6.57779 -0.698646 4.29936
upperback 2.70164 -1.28046 -0.725278
thorax 6.4159 -0.431861 -3.32986
lowerneck 0.254743 16.5391 -1.20066
upperneck -0.326744 22.2088 -6.90795
head 0.554 11.1375 -1.73834
rclavicle -2.75876e-014 6.95746e-015
rhumerus -29.452 2.53802 -95.1645
rradius 26.4337
rwrist 25.6493
rhand 10.3416 -22.4606
rfingers 7.12502
rthumb 35.4502 -48.9103
lclavicle -2.75876e-014 6.95746e-015
lhumerus -29.0021 13.1784 89.1991
lradius 32.652
lwrist -9.85486
lhand -11.4582 16.0353
lfingers 7.12502
lthumb 14.5791 45.5029
rfemur -1.30741 9.13214 27.6107
rtibia 23.7003
rfoot -21.6908 -13.8201
rtoes -10.9505
lfemur -15.6259 -2.32647 -20.7103
ltibia 35.3532
lfoot -29.6307 16.0857
ltoes -4.85694
854
root 36.8242 17.3317 4.11623 -535.467 72.5477 -174.78
lowerback -6.68071 -0.739713 4.26643
upperback 2.79676 -1.33986 -0.698289
thorax 6.572 -0.456949 -3.29381
lowerneck 0.110624 16.4815 -1.24835
upperneck -0.475498 22.1265 -6.94981
head 0.527161 11.098 -1.74079
rclavicle -2.70782e-014 5.1684e-015
rhumerus -29.2896 1.47116 -94.5253
rradius 25.7611
rwrist 26.8777
rhand 10.3174 -22.3808
rfingers 7.12502
rthumb 35.4273 -48.8359
lclavicle -2.70782e-014 5.1684e-015
lhumerus -28.7293 12.7096 89.4676
lradius 32.7517
lwrist -9.54795
lhand -11.6954 16.3498
lfingers 7.12502
lthumb 14.3505 45.8338
rfemur -1.32147 8.68796 27.69
rtibia 23.9061
rfoot -21.6367 -13.6473
rtoes -11.2324
lfemur -15.4853 -2.53037 -20.6085
ltibia 35.2253
lfoot -29.6107 15.7376
ltoes -5.14208
855
root 36.8439 17.3271 4.10471 -535.594 72.2119 -174.813
lowerback -1.64389 -0.878751 4.41073
upperback -0.942407 -1.22351 -0.810039
thorax -0.157361 -0.629947 -3.3235
lowerneck 4.43422 16.4325 -0.047458
upperneck 1.00052 22.0918 -5.87841
head 0.305854 11.1299 -1.9173
rclavicle -5.91012e-014 3.37934e-015
rhumerus -35.5039 -0.135808 -93.9056
rradius 25.8289
rwrist 27.9547
rhand 10.3116 -22.2991
rfingers 7.12502
rthumb 35.4218 -48.7556
lclavicle -5.91012e-014 3.37934e-015
lhumerus -34.9728 11.7754 88.5057
lradius 33.5837
lwrist -8.88553
lhand -11.9007 16.3938
lfingers 7.12502
lthumb 14.1527 45.8918
rfemur -1.27608 8.13075 27.643
rtibia 24.1371
rfoot -21.6413 -13.3949
rtoes -11.5339
lfemur -15.2924 -2.62855 -20.6205
ltibia 35.1219
lfoot -29.5784 15.3222
ltoes -5.09928
856
root 36.8593 17.3285 4.09247 -535.841 71.7907 -174.988
lowerback -1.47168 -0.746238 4.68529
upperback -1.01925 -1.04038 -1.04969
thorax -0.3265 -0.545987 -3.72034
lowerneck 4.52141 16.193 0.0516605
upperneck 0.95603 21.764 -5.71334
head 0.257108 10.966 -1.89689
rclavicle -1.23246e-014 7.95139e-016
rhumerus -35.6688 -1.92499 -92.9851
rradius 25.2253
rwrist 29.2384
rhand 10.2511 -22.2025
rfingers 7.12502
rthumb 35.3644 -48.6726
lclavicle -1.23246e-014 7.95139e-016
lhumerus -34.951 10.8476 88.7279
lradius 33.5831
lwrist -9.0866
lhand -11.521 16.0693
lfingers 7.12502
lthumb 14.5185 45.5413
rfemur -1.27571 7.83949 27.576
rtibia 24.4219
rfoot -21.7757 -13.2704
rtoes -11.059
lfemur -15.0713 -3.29974 -20.6381
ltibia 35.0051
lfoot -29.6948 15.0478
ltoes -4.6419
